<svg xmlns="http://www.w3.org/2000/svg" width="57.305" height="109.8" viewBox="0 0 57.305 109.8">
  <g id="right-arrow" transform="translate(-117.325 0)">
    <path id="Caminho_1" data-name="Caminho 1" d="M121.432.8a2.386,2.386,0,0,0-3.374,3.374l50.809,50.814L118.053,105.8a2.386,2.386,0,1,0,3.316,3.433l.059-.059,52.5-52.5a2.386,2.386,0,0,0,0-3.374Z" transform="translate(0 -0.104)" fill="#ca3e47"/>
    <path id="Caminho_2" data-name="Caminho 2" d="M119.838,109.773a2.386,2.386,0,0,1-1.69-4.076l50.814-50.809L118.148,4.079A2.389,2.389,0,0,1,121.527.7l52.5,52.5a2.386,2.386,0,0,1,0,3.374l-52.5,52.5A2.385,2.385,0,0,1,119.838,109.773Z" transform="translate(-0.095 0)" fill="#ca3e47"/>
  </g>
</svg>
